<svg width="69" height="68" viewBox="0 0 69 68" fill="none" xmlns="http://www.w3.org/2000/svg">
<g clip-path="url(#clip0_202_265)">
<rect x="46.7028" y="27" width="12" height="30" fill="#FFD645"/>
<rect x="11.7028" y="43" width="27" height="14" fill="#FFD645"/>
<rect x="11.7028" y="27" width="27" height="6" fill="#FFD645"/>
<path d="M62.7262 0H6.67932C3.38384 0 0.702759 2.68109 0.702759 5.97656V62.0234C0.702759 65.3189 3.38384 68 6.67932 68H62.7262C66.0217 68 68.7028 65.3189 68.7028 62.0234V5.97656C68.7028 2.68109 66.0217 0 62.7262 0ZM4.68713 5.97656C4.68713 4.87807 5.58083 3.98438 6.67932 3.98438H16.6403V15.9375H4.68713V5.97656ZM64.7184 62.0234C64.7184 63.1219 63.8247 64.0156 62.7262 64.0156H6.67932C5.58083 64.0156 4.68713 63.1219 4.68713 62.0234V19.9219H64.7184V62.0234ZM64.7184 15.9375H20.6246V3.98438H62.7262C63.8247 3.98438 64.7184 4.87807 64.7184 5.97656V15.9375Z" fill="black"/>
<path d="M58.7418 7.96875H54.7574C53.6572 7.96875 52.7653 8.86072 52.7653 9.96094C52.7653 11.0612 53.6572 11.9531 54.7574 11.9531H58.7418C59.842 11.9531 60.734 11.0612 60.734 9.96094C60.734 8.86072 59.842 7.96875 58.7418 7.96875Z" fill="black"/>
<path d="M46.6559 7.96875H42.6715C41.5713 7.96875 40.6793 8.86072 40.6793 9.96094C40.6793 11.0612 41.5713 11.9531 42.6715 11.9531H46.6559C47.7561 11.9531 48.6481 11.0612 48.6481 9.96094C48.6481 8.86072 47.7561 7.96875 46.6559 7.96875Z" fill="black"/>
<path d="M34.7028 7.96875H30.7184C29.6182 7.96875 28.7262 8.86072 28.7262 9.96094C28.7262 11.0612 29.6182 11.9531 30.7184 11.9531H34.7028C35.803 11.9531 36.6949 11.0612 36.6949 9.96094C36.6949 8.86072 35.803 7.96875 34.7028 7.96875Z" fill="black"/>
<path d="M38.6871 24.0391H10.6637C9.56348 24.0391 8.67151 24.931 8.67151 26.0312V34C8.67151 35.1002 9.56348 35.9922 10.6637 35.9922H38.6871C39.7874 35.9922 40.6793 35.1002 40.6793 34V26.0312C40.6793 24.931 39.7874 24.0391 38.6871 24.0391ZM36.6949 32.0078H12.6559V28.0234H36.6949V32.0078Z" fill="black"/>
<path d="M58.7418 24.0391H46.6559C45.5557 24.0391 44.6637 24.931 44.6637 26.0312V58.0391C44.6637 59.1393 45.5557 60.0312 46.6559 60.0312H58.7418C59.842 60.0312 60.734 59.1393 60.734 58.0391V26.0312C60.734 24.931 59.842 24.0391 58.7418 24.0391ZM56.7496 56.0469H48.6481V28.0234H56.7496V56.0469Z" fill="black"/>
<path d="M38.6871 39.9766H10.6637C9.56348 39.9766 8.67151 40.8685 8.67151 41.9688V58.0391C8.67151 59.1393 9.56348 60.0312 10.6637 60.0312H38.6871C39.7874 60.0312 40.6793 59.1393 40.6793 58.0391V41.9688C40.6793 40.8685 39.7874 39.9766 38.6871 39.9766ZM36.6949 56.0469H12.6559V43.9609H36.6949V56.0469Z" fill="black"/>
</g>
<defs>
<clipPath id="clip0_202_265">
<rect width="68" height="68" fill="white" transform="translate(0.702759)"/>
</clipPath>
</defs>
</svg>
